<?xml version="1.0" standalone="no"?>
<!DOCTYPE svg PUBLIC "-//W3C//DTD SVG 20010904//EN"
 "http://www.w3.org/TR/2001/REC-SVG-20010904/DTD/svg10.dtd">
<svg version="1.0" xmlns="http://www.w3.org/2000/svg"
 width="288.000000pt" height="288.000000pt" viewBox="0 0 288.000000 288.000000"
 preserveAspectRatio="xMidYMid meet">
<metadata>
Created by potrace 1.11, written by Peter Selinger 2001-2013
</metadata>
<g transform="translate(0.000000,288.000000) scale(0.100000,-0.100000)"
fill="#000000" stroke="none">
<path d="M450 2514 c-211 -41 -378 -196 -434 -404 -19 -70 -14 -231 9 -320 39
-150 126 -315 253 -474 153 -193 446 -441 710 -601 l93 -56 52 32 c29 18 86
56 127 84 41 27 79 53 86 57 7 5 34 -29 74 -93 70 -114 179 -255 262 -343 l57
-60 78 18 c43 9 86 19 97 21 41 9 186 58 271 92 418 166 676 432 693 713 7
137 -32 255 -118 353 -58 66 -120 106 -214 139 -120 41 -244 32 -377 -26 -12
-5 -22 3 -38 30 l-22 37 22 81 c28 104 34 241 13 321 -59 228 -260 390 -497
401 -171 8 -351 -78 -509 -243 l-56 -59 -89 85 c-149 143 -288 212 -438 217
-44 1 -91 0 -105 -2z m1351 -854 c69 -36 161 -160 205 -278 14 -37 29 -71 33
-75 5 -5 39 12 77 36 151 97 296 130 386 87 26 -12 62 -38 79 -58 128 -145 51
-351 -197 -528 -118 -84 -339 -183 -493 -220 l-69 -17 -30 34 c-62 72 -81 97
-134 179 -83 127 -166 301 -182 382 -23 113 -27 152 -23 208 6 68 20 118 46
160 64 103 197 143 302 90z"/>
</g>
</svg>
